<svg width="80" height="80" viewBox="0 0 80 80" fill="none" xmlns="http://www.w3.org/2000/svg">
<mask id="mask0" mask-type="alpha" maskUnits="userSpaceOnUse" x="58" y="32" width="22" height="25">
<path d="M79.9025 32.3499V56.9477H58.126V32.3499H79.9025Z" fill="white"/>
</mask>
<g mask="url(#mask0)">
<path fill-rule="evenodd" clip-rule="evenodd" d="M79.5912 32.7026L79.4941 32.3499C79.4941 32.3499 78.951 35.4857 77.5708 38.2774C77.4674 38.4481 77.362 38.6222 77.2537 38.801C77.1352 38.9899 77.0334 39.1883 76.8917 39.3723C76.6196 39.7442 76.3733 40.1353 76.0551 40.4917C75.7243 40.9132 75.3508 41.3093 74.9567 41.6864C74.5017 42.0228 73.9733 42.472 73.4006 42.9967C73.2239 43.1203 73.0493 43.2441 72.8795 43.3681L72.2662 43.7583C72.0693 43.8904 71.842 44.0047 71.6382 44.13C70.7918 44.615 69.9079 45.0599 69.0149 45.5005C68.1182 45.939 67.2054 46.3737 66.3413 46.8387C65.5818 47.2469 64.8272 47.703 64.1237 48.195C63.4086 48.6931 62.7382 49.223 62.1092 49.7956C60.8575 50.9294 59.8214 52.2059 59.156 53.425C59.1152 53.4996 59.0745 53.5735 59.0342 53.6467C58.9966 53.7241 58.9595 53.8006 58.9227 53.8763C58.851 54.0273 58.7844 54.174 58.7224 54.3164C58.5953 54.5935 58.5011 54.8858 58.4199 55.1473C58.2493 55.6605 58.1876 56.1488 58.1434 56.5145C58.1288 56.6747 58.1255 56.8175 58.1261 56.9477C58.2379 56.8202 58.3551 56.6869 58.4795 56.545C58.6212 56.4062 58.77 56.2602 58.9255 56.108C59.0821 55.9578 59.2412 55.7969 59.4131 55.6387C59.5906 55.4867 59.7738 55.3294 59.9623 55.1678C60.3319 54.8359 60.7553 54.5278 61.1798 54.1939C61.6111 53.8687 62.0677 53.5475 62.5316 53.2226C63.0027 52.9076 63.476 52.581 63.9629 52.2748C65.8967 51.0296 67.8827 49.8767 69.3074 48.9232C69.6697 48.6922 69.979 48.4539 70.2658 48.2562C70.5432 48.0483 70.7743 47.8549 70.9707 47.7014C71.3339 47.3664 71.537 47.1678 71.537 47.1678C71.537 47.1678 71.3461 47.3747 70.999 47.7293C70.8113 47.8922 70.5894 48.0978 70.3222 48.3201C70.0463 48.5315 69.7469 48.787 69.397 49.0355C68.0203 50.0605 66.0942 51.3111 64.2434 52.639C63.7766 52.9664 63.3265 53.3117 62.8781 53.6452C62.4382 53.9874 62.0064 54.3251 61.6016 54.6638C61.2048 55.01 60.807 55.3309 60.4683 55.6687C60.2947 55.8335 60.1259 55.9938 59.9625 56.1488C59.8928 56.22 59.8265 56.2909 59.7613 56.3613C59.7373 56.4616 59.6781 56.5839 59.5753 56.7216C69.7282 53.1593 82.0225 50.4079 79.5912 32.7026Z" fill="#E63946"/>
</g>
<path fill-rule="evenodd" clip-rule="evenodd" d="M70.1771 42.7154C70.2451 42.6119 70.3182 42.5005 70.3972 42.3802C70.5333 42.1449 70.6868 41.8794 70.8542 41.5899C71.028 41.3037 71.1927 40.9785 71.3659 40.6336C71.4535 40.4615 71.5434 40.2849 71.6354 40.1042C71.7191 39.92 71.8046 39.7317 71.8917 39.5405C71.978 39.3486 72.0658 39.1535 72.1547 38.956C72.2357 38.7553 72.3174 38.5523 72.4 38.3477C72.4814 38.1423 72.5633 37.9354 72.6457 37.7277C72.7202 37.5172 72.7951 37.3059 72.87 37.0947C73.0264 36.6738 73.1534 36.2443 73.2871 35.8234C73.4207 35.4027 73.5269 34.9818 73.6428 34.5776C73.7407 34.1694 73.8482 33.777 73.9275 33.4003C74.0114 33.0245 74.0878 32.6685 74.1484 32.3381C74.4049 31.018 74.4827 30.124 74.4827 30.124C74.4827 30.124 74.4489 31.0204 74.2571 32.354C74.2129 32.6879 74.1537 33.048 74.0878 33.4286C74.0269 33.8101 73.9387 34.2084 73.8604 34.623C73.7639 35.0339 73.6778 35.4622 73.5642 35.8914C73.4504 36.3206 73.3437 36.7594 73.2069 37.1908C73.1416 37.4073 73.0765 37.6239 73.0117 37.8396C72.939 38.0532 72.8662 38.2661 72.7943 38.4772C72.721 38.6881 72.648 38.8972 72.5761 39.1039C72.4959 39.3079 72.4167 39.5097 72.3387 39.7079C72.2598 39.9062 72.1824 40.1011 72.1065 40.2919C72.022 40.4796 71.9394 40.6633 71.859 40.8421C71.7002 41.2006 71.5485 41.5392 71.3828 41.8446C71.2236 42.1523 71.0777 42.4342 70.9486 42.684C70.8076 42.9225 70.6848 43.1305 70.5836 43.3018C70.57 43.3247 70.558 43.3452 70.5452 43.3667C74.8869 39.1045 80.7003 30.9929 76.8131 15.8406C76.4084 18.3163 74.5252 21.6414 71.9273 27.0576C68.3434 34.5286 69.5528 40.2119 70.1771 42.7154Z" fill="#E63946"/>
<path fill-rule="evenodd" clip-rule="evenodd" d="M67.8617 30.773C67.5841 29.4171 67.248 27.6068 66.9612 25.7892C66.6727 23.9721 66.4268 22.1502 66.2707 20.7812C66.1109 19.4125 66.0346 18.4976 66.0346 18.4976C66.0346 18.4976 66.1514 19.4088 66.3714 20.769C66.5876 22.1295 66.9137 23.9379 67.2814 25.7378C67.6474 27.5379 68.0626 29.3293 68.3975 30.6644C68.503 31.0938 68.6003 31.4705 68.6853 31.7931C68.873 28.3285 70.9078 19.0954 68.3818 12.3331C67.3274 9.51002 65.3522 5.18762 65.3522 5.18762C65.3575 5.1006 65.3532 5.14956 65.35 5.19298C59.9875 17.9497 66.1025 29.0315 68.1449 32.1236C68.0655 31.7607 67.9678 31.3046 67.8617 30.773Z" fill="#E63946"/>
<path fill-rule="evenodd" clip-rule="evenodd" d="M61.8812 21.2924C61.851 21.2281 61.8232 21.1666 61.792 21.1012C61.6296 20.7414 61.4331 20.3728 61.2402 19.9863C61.0378 19.6046 60.8281 19.2094 60.6018 18.8146C60.3748 18.4198 60.1429 18.0192 59.8942 17.6273C59.6558 17.2296 59.391 16.8475 59.1408 16.4641C58.8743 16.0918 58.6252 15.7149 58.3549 15.3705C58.2223 15.1963 58.0917 15.025 57.964 14.8575C57.8303 14.6941 57.6994 14.5345 57.5718 14.3789C57.3208 14.0643 57.0547 13.7901 56.8237 13.5237C56.5747 13.2739 56.354 13.0361 56.1428 12.8405C55.9278 12.6489 55.7466 12.4737 55.5856 12.3425C55.2585 12.0844 55.0716 11.9368 55.0716 11.9368C55.0716 11.9368 55.2684 12.0734 55.6125 12.3122C55.7828 12.4344 55.9754 12.5986 56.2048 12.7789C56.4302 12.963 56.6673 13.1882 56.9354 13.4256C57.1846 13.6789 57.4724 13.9407 57.7458 14.2422C57.8848 14.3913 58.0277 14.5447 58.1735 14.7015C58.3135 14.8628 58.4566 15.0276 58.602 15.1952C58.8982 15.5274 59.174 15.8915 59.4689 16.2526C59.5984 16.4257 59.7317 16.5992 59.8639 16.774C60.0153 16.9742 60.1655 17.1762 60.3086 17.3829C60.5088 17.6582 60.6993 17.9383 60.887 18.218C60.9596 18.3263 61.0331 18.4346 61.1046 18.5424C61.3605 18.9291 61.6 19.3171 61.8315 19.6927C61.918 19.8413 62.0039 19.9852 62.089 20.129C61.7202 17.198 61.2406 10.9752 54.5692 6.83326C51.3472 4.83289 47.5787 1.67778 46.9234 0C47.3828 1.17617 47.2369 1.05921 46.9234 0C46.4391 11.7674 58.7744 19.6453 61.8812 21.2924Z" fill="#E63946"/>
<path fill-rule="evenodd" clip-rule="evenodd" d="M45.3894 73.5552L67.0631 59.7207C57.8604 61.4874 50.0674 66.6024 45.3894 73.5552Z" fill="#E63946"/>
<path fill-rule="evenodd" clip-rule="evenodd" d="M55.1438 59.8194C54.3338 60.0502 53.5326 60.314 52.7562 60.6063C52.7369 60.6133 52.7005 60.6205 52.6817 60.6274L52.6528 60.6281C47.4573 62.5962 43.2098 65.9026 39.9609 70.0629C36.7121 65.9026 32.4548 62.5962 27.2594 60.6281L27.2257 60.6274C27.2067 60.6205 27.168 60.6133 27.1487 60.6063C26.3725 60.314 25.5699 60.0502 24.7599 59.8194C24.7489 59.8326 24.732 59.8448 24.7204 59.8577C19.1102 58.3388 10.6198 57.1665 10.6198 57.1665C10.6198 57.1665 14.4495 58.1184 22.1472 61.5896C30.3426 65.3099 36.7121 72.394 39.9609 79.8455C43.2098 72.394 49.5697 65.3099 57.7651 61.5896C65.4628 58.1184 69.2831 57.1665 69.2831 57.1665C69.2831 57.1665 60.7929 58.3388 55.1827 59.8577C55.1713 59.8448 55.1548 59.8326 55.1438 59.8194Z" fill="#E63946"/>
<mask id="mask1" mask-type="alpha" maskUnits="userSpaceOnUse" x="0" y="32" width="22" height="25">
<path d="M0 56.9475V32.3499H21.7766V56.9475H0H0Z" fill="white"/>
</mask>
<g mask="url(#mask1)">
<path fill-rule="evenodd" clip-rule="evenodd" d="M20.1412 56.3613C20.0759 56.2909 20.0097 56.2198 19.9399 56.1488C19.7766 55.9936 19.6077 55.8335 19.4342 55.6686C19.0955 55.3309 18.6977 55.0098 18.3008 54.6636C17.8961 54.3251 17.4643 53.9874 17.0244 53.6452C16.5762 53.3117 16.1261 52.9662 15.659 52.639C13.8082 51.3111 11.8821 50.0605 10.5054 49.0355C10.1556 48.787 9.85619 48.5315 9.58022 48.3201C9.3131 48.0978 9.09118 47.892 8.90347 47.7293C8.55634 47.3745 8.36548 47.1678 8.36548 47.1678C8.36548 47.1678 8.56873 47.3662 8.93177 47.7014C9.12814 47.8547 9.35929 48.0483 9.63664 48.2562C9.92342 48.4539 10.2328 48.6922 10.5951 48.9232C12.0197 49.8765 14.0058 51.0296 15.9395 52.2747C16.4264 52.581 16.8997 52.9074 17.3709 53.2226C17.8348 53.5473 18.2914 53.8687 18.7226 54.1939C19.1472 54.5278 19.5706 54.8359 19.9401 55.1676C20.1286 55.3293 20.3118 55.4865 20.4893 55.6387C20.6613 55.7967 20.8203 55.9576 20.977 56.108C21.1325 56.2602 21.2813 56.4062 21.423 56.545C21.5474 56.6867 21.6645 56.8201 21.7766 56.9475C21.777 56.8175 21.7738 56.6747 21.7591 56.5145C21.7149 56.1488 21.6533 55.6605 21.4825 55.1473C21.4014 54.8858 21.3072 54.5934 21.1802 54.3162C21.1181 54.174 21.0517 54.0271 20.9799 53.8761C20.943 53.8006 20.9058 53.7239 20.8683 53.6465C20.828 53.5735 20.7875 53.4996 20.7464 53.425C20.0813 52.2059 19.045 50.9294 17.7933 49.7956C17.1645 49.2228 16.4938 48.6931 15.7787 48.1948C15.0753 47.7028 14.3209 47.2468 13.5612 46.8387C12.6971 46.3735 11.7843 45.9388 10.8875 45.5003C9.99457 45.0599 9.11064 44.615 8.26425 44.1298C8.06042 44.0045 7.8332 43.8902 7.63624 43.7581L7.02298 43.3681C6.85315 43.2439 6.6786 43.1203 6.50209 42.9967C5.92912 42.472 5.40096 42.0228 4.94573 41.6862C4.55162 41.3093 4.17836 40.9132 3.84735 40.4916C3.52912 40.1353 3.28283 39.7442 3.01079 39.3721C2.86907 39.1883 2.76725 38.9899 2.64873 38.801C2.54042 38.6222 2.43506 38.4481 2.33167 38.2774C0.951428 35.4857 0.408529 32.3499 0.408529 32.3499L0.311231 32.7026C-2.12002 50.4079 10.1742 53.1591 20.3272 56.7214C20.2244 56.5839 20.1652 56.4616 20.1412 56.3613Z" fill="#E63946"/>
</g>
<path fill-rule="evenodd" clip-rule="evenodd" d="M9.31887 43.3018C9.21765 43.1306 9.0948 42.9225 8.95406 42.684C8.82472 42.4342 8.67887 42.1523 8.51966 41.8446C8.35396 41.5392 8.20241 41.2006 8.04339 40.8422C7.963 40.6633 7.88045 40.4797 7.79592 40.2919C7.72005 40.1011 7.64261 39.9062 7.56379 39.7079C7.48575 39.5097 7.40654 39.3079 7.32634 39.104C7.2544 38.8972 7.18148 38.6881 7.10816 38.4771C7.03622 38.2661 6.96369 38.0532 6.89077 37.8397C6.8259 37.6239 6.76084 37.4073 6.69578 37.1906C6.55878 36.7594 6.45204 36.3206 6.33823 35.8914C6.22462 35.462 6.13853 35.0339 6.04202 34.623C5.96379 34.2084 5.87553 33.8101 5.8146 33.4286C5.74875 33.048 5.68978 32.6879 5.64536 32.354C5.45352 31.0203 5.41971 30.124 5.41971 30.124C5.41971 30.124 5.49755 31.018 5.75406 32.3381C5.8146 32.6685 5.89106 33.0245 5.97519 33.4003C6.0544 33.777 6.16172 34.1694 6.25961 34.5776C6.37558 34.9818 6.48172 35.4025 6.61538 35.8234C6.74924 36.2443 6.87602 36.6738 7.03249 37.0945C7.10737 37.3059 7.18226 37.5171 7.25676 37.7277C7.33912 37.9354 7.42108 38.1423 7.50246 38.3476C7.58502 38.5523 7.66678 38.7553 7.74777 38.956C7.83661 39.1535 7.92448 39.3486 8.01096 39.5403C8.09784 39.7318 8.18334 39.92 8.26708 40.1042C8.35907 40.2849 8.4489 40.4616 8.53656 40.6336C8.70973 40.9785 8.87445 41.3037 9.04821 41.5897C9.21568 41.8794 9.36919 42.1449 9.50521 42.3801C9.58423 42.5005 9.65735 42.6119 9.72536 42.7154C10.3496 40.2119 11.5591 34.5286 7.97519 27.0576C5.37725 21.6414 3.49401 18.3163 3.08929 15.8406C-0.797885 30.9929 5.01558 39.1045 9.3572 43.3667C9.34443 43.3451 9.33244 43.3247 9.31887 43.3018Z" fill="#E63946"/>
<path fill-rule="evenodd" clip-rule="evenodd" d="M11.5049 30.6641C11.8399 29.3291 12.255 27.5379 12.621 25.7378C12.9889 23.9377 13.3148 22.1293 13.5313 20.7687C13.7512 19.4085 13.8678 18.4975 13.8678 18.4975C13.8678 18.4975 13.7915 19.4122 13.6319 20.7809C13.4758 22.1501 13.2297 23.972 12.9412 25.7891C12.6544 27.6068 12.3183 29.4168 12.0407 30.7728C11.9348 31.3045 11.8369 31.7605 11.7575 32.1234C13.8002 29.0314 19.9149 17.9495 14.5526 5.19274C14.5492 5.14932 14.5449 5.10036 14.5504 5.18738C14.5504 5.18738 12.5752 9.50978 11.5206 12.3329C8.99484 19.0952 11.0296 28.3284 11.2173 31.7928C11.3021 31.4702 11.3994 31.0935 11.5049 30.6641Z" fill="#E63946"/>
<path fill-rule="evenodd" clip-rule="evenodd" d="M18.7979 18.5424C18.8694 18.4347 18.9429 18.3263 19.0154 18.218C19.2032 17.9383 19.3936 17.6582 19.5941 17.3831C19.737 17.1762 19.8872 16.9742 20.0385 16.7741C20.1708 16.5992 20.3041 16.4259 20.4336 16.2526C20.7285 15.8915 21.0042 15.5274 21.3005 15.1954C21.4459 15.0276 21.589 14.8628 21.729 14.7015C21.875 14.5449 22.0177 14.3915 22.1567 14.2422C22.4301 13.9407 22.7178 13.6791 22.9673 13.4258C23.2352 13.1882 23.4722 12.9631 23.6977 12.7789C23.9271 12.5986 24.1197 12.4344 24.2899 12.3122C24.6341 12.0733 24.8309 11.937 24.8309 11.937C24.8309 11.937 24.6439 12.0844 24.3169 12.3425C24.1559 12.4739 23.9747 12.6489 23.7598 12.8406C23.5485 13.0361 23.3278 13.2739 23.0787 13.5239C22.848 13.7901 22.5816 14.0643 22.3306 14.3789C22.2033 14.5345 22.0723 14.6943 21.9385 14.8576C21.8107 15.0252 21.6802 15.1965 21.5475 15.3705C21.2773 15.7149 21.0282 16.0918 20.7617 16.4641C20.5117 16.8475 20.2467 17.2297 20.0083 17.6275C19.7596 18.0192 19.5277 18.42 19.3007 18.8146C19.0746 19.2096 18.8647 19.6046 18.6622 19.9863C18.4694 20.3728 18.2728 20.7414 18.1105 21.1012C18.0792 21.1666 18.0515 21.2283 18.0212 21.2924C21.1281 19.6453 33.4634 11.7674 32.9791 0C32.6656 1.0594 32.5197 1.17635 32.9791 0C32.3239 1.67778 28.5553 4.83307 25.3333 6.83326C18.6618 10.9751 18.1824 17.1982 17.8135 20.1291C17.8986 19.9852 17.9845 19.8413 18.071 19.6929C18.3025 19.3171 18.5419 18.9291 18.7979 18.5424Z" fill="#E63946"/>
<path fill-rule="evenodd" clip-rule="evenodd" d="M12.8393 59.7207L34.513 73.5552C29.8351 66.6024 22.042 61.4874 12.8393 59.7207Z" fill="#E63946"/>
<path d="M38.9901 43.18C38.3541 43.18 37.7961 42.994 37.3161 42.622C36.8481 42.238 36.3261 41.554 35.7501 40.57L33.9501 37.51H32.6901V43H31.0701V33.28C31.0701 32.668 30.9861 32.218 30.8181 31.93C30.6501 31.63 30.3141 31.48 29.8101 31.48H29.4501V31.12H34.1301C35.2701 31.12 36.3021 31.348 37.2261 31.804C38.1621 32.248 38.6301 33.1 38.6301 34.36C38.6301 35.956 37.6701 36.976 35.7501 37.42L37.6401 40.57C38.0841 41.314 38.4801 41.836 38.8281 42.136C39.1881 42.424 39.6021 42.592 40.0701 42.64V43C39.9621 43.048 39.8061 43.09 39.6021 43.126C39.4101 43.162 39.2061 43.18 38.9901 43.18ZM34.0401 36.88C34.4121 36.88 34.8141 36.79 35.2461 36.61C35.6901 36.43 36.0621 36.148 36.3621 35.764C36.6741 35.38 36.8301 34.912 36.8301 34.36C36.8301 33.772 36.6741 33.286 36.3621 32.902C36.0621 32.506 35.6901 32.218 35.2461 32.038C34.8141 31.846 34.4121 31.75 34.0401 31.75C33.6201 31.75 33.1701 31.81 32.6901 31.93V36.7C33.1701 36.82 33.6201 36.88 34.0401 36.88ZM46.2392 43.36C45.1232 43.36 44.1392 43.09 43.2872 42.55C42.4472 42.01 41.7992 41.278 41.3432 40.354C40.8872 39.418 40.6592 38.38 40.6592 37.24C40.6592 36.064 40.9052 34.978 41.3972 33.982C41.9012 32.986 42.5792 32.2 43.4312 31.624C44.2952 31.048 45.2312 30.76 46.2392 30.76C47.1992 30.76 48.0392 30.898 48.7592 31.174C49.4912 31.438 50.0312 31.78 50.3792 32.2C50.5832 32.452 50.7092 32.788 50.7572 33.208C50.8052 33.616 50.8292 34.18 50.8292 34.9H50.4692C50.2412 33.736 49.8212 32.878 49.2092 32.326C48.5972 31.762 47.7872 31.48 46.7792 31.48C45.4832 31.48 44.4392 31.936 43.6472 32.848C42.8552 33.76 42.4592 35.224 42.4592 37.24C42.4592 38.188 42.6092 39.07 42.9092 39.886C43.2212 40.702 43.7012 41.368 44.3492 41.884C44.9972 42.388 45.8072 42.64 46.7792 42.64C47.6552 42.64 48.4172 42.43 49.0652 42.01C49.7252 41.59 50.3132 40.96 50.8292 40.12L51.1892 40.39C50.6372 41.47 49.9532 42.238 49.1372 42.694C48.3332 43.138 47.3672 43.36 46.2392 43.36Z" fill="#F1FAEE"/>
</svg>
